<?xml version="1.0" encoding="windows-1252" standalone="no"?>
<svg xmlns="http://www.w3.org/2000/svg" xmlns:xlink="http://www.w3.org/1999/xlink" contentStyleType="text/css" height="956px" preserveAspectRatio="none" style="width:1340px;height:956px;background:#FFFFFF;" version="1.1" viewBox="0 0 1340 956" width="1340px" zoomAndPan="magnify"><defs/><g><!--class EQUIPEMENT_TYPE--><g id="elem_EQUIPEMENT_TYPE"><rect codeLine="2" fill="#F1F1F1" height="113.1875" id="EQUIPEMENT_TYPE" rx="2.5" ry="2.5" style="stroke:#181818;stroke-width:0.5;" width="166" x="19.96" y="418.38"/><ellipse cx="34.96" cy="434.38" fill="#EB937F" rx="11" ry="11" style="stroke:#181818;stroke-width:1.0;"/><path d="M39.0694,440.38 L31.3506,440.38 L31.3506,427.9894 L39.0694,427.9894 L39.0694,430.1456 L33.8038,430.1456 L33.8038,432.8175 L38.5694,432.8175 L38.5694,434.9738 L33.8038,434.9738 L33.8038,438.2238 L39.0694,438.2238 L39.0694,440.38 Z " fill="#000000"/><text fill="#000000" font-family="sans-serif" font-size="14" lengthAdjust="spacing" textLength="134" x="48.96" y="439.2267">EQUIPEMENT_TYPE</text><line style="stroke:#181818;stroke-width:0.5;" x1="20.96" x2="184.96" y1="450.38" y2="450.38"/><text fill="#000000" font-family="sans-serif" font-size="14" lengthAdjust="spacing" textLength="54" x="25.96" y="467.3751">LAPTOP</text><text fill="#000000" font-family="sans-serif" font-size="14" lengthAdjust="spacing" textLength="46" x="25.96" y="483.672">NOT IT</text><text fill="#000000" font-family="sans-serif" font-size="14" lengthAdjust="spacing" textLength="56" x="25.96" y="499.9689">SERVER</text><text fill="#000000" font-family="sans-serif" font-size="14" lengthAdjust="spacing" textLength="124" x="25.96" y="516.2657">VIRTUAL MACHINE</text><line style="stroke:#181818;stroke-width:0.5;" x1="20.96" x2="184.96" y1="523.5675" y2="523.5675"/></g><!--class Electricity_Mix--><g id="elem_Electricity_Mix"><rect codeLine="9" fill="#F1F1F1" height="64.2969" id="Electricity_Mix" rx="2.5" ry="2.5" style="stroke:#181818;stroke-width:0.5;" width="126" x="794.96" y="180.89"/><ellipse cx="809.96" cy="196.89" fill="#ADD1B2" rx="11" ry="11" style="stroke:#181818;stroke-width:1.0;"/><path d="M812.9287,202.5306 Q812.3506,202.8275 811.71,202.9681 Q811.0694,203.1244 810.3662,203.1244 Q807.8662,203.1244 806.5381,201.4838 Q805.2256,199.8275 805.2256,196.7025 Q805.2256,193.5775 806.5381,191.9213 Q807.8662,190.265 810.3662,190.265 Q811.0694,190.265 811.71,190.4213 Q812.3662,190.5775 812.9287,190.8744 L812.9287,193.5931 Q812.3037,193.015 811.71,192.7494 Q811.1162,192.4681 810.4912,192.4681 Q809.1475,192.4681 808.46,193.5463 Q807.7725,194.6088 807.7725,196.7025 Q807.7725,198.7963 808.46,199.8744 Q809.1475,200.9369 810.4912,200.9369 Q811.1162,200.9369 811.71,200.6713 Q812.3037,200.39 812.9287,199.8119 L812.9287,202.5306 Z " fill="#000000"/><text fill="#000000" font-family="sans-serif" font-size="14" lengthAdjust="spacing" textLength="94" x="823.96" y="201.7367">Electricity_Mix</text><line style="stroke:#181818;stroke-width:0.5;" x1="795.96" x2="919.96" y1="212.89" y2="212.89"/><text fill="#000000" font-family="sans-serif" font-size="14" lengthAdjust="spacing" textLength="83" x="800.96" y="229.8851">name:string</text><line style="stroke:#181818;stroke-width:0.5;" x1="795.96" x2="919.96" y1="237.1869" y2="237.1869"/></g><!--class Impact--><g id="elem_Impact"><rect codeLine="15" fill="#F1F1F1" height="48" id="Impact" rx="2.5" ry="2.5" style="stroke:#181818;stroke-width:0.5;" width="78" x="638.96" y="450.97"/><ellipse cx="653.96" cy="466.97" fill="#ADD1B2" rx="11" ry="11" style="stroke:#181818;stroke-width:1.0;"/><path d="M656.9287,472.6106 Q656.3506,472.9075 655.71,473.0481 Q655.0694,473.2044 654.3662,473.2044 Q651.8662,473.2044 650.5381,471.5637 Q649.2256,469.9075 649.2256,466.7825 Q649.2256,463.6575 650.5381,462.0012 Q651.8662,460.345 654.3662,460.345 Q655.0694,460.345 655.71,460.5012 Q656.3662,460.6575 656.9287,460.9544 L656.9287,463.6731 Q656.3037,463.095 655.71,462.8294 Q655.1162,462.5481 654.4912,462.5481 Q653.1475,462.5481 652.46,463.6262 Q651.7725,464.6887 651.7725,466.7825 Q651.7725,468.8762 652.46,469.9544 Q653.1475,471.0169 654.4912,471.0169 Q655.1162,471.0169 655.71,470.7512 Q656.3037,470.47 656.9287,469.8919 L656.9287,472.6106 Z " fill="#000000"/><text fill="#000000" font-family="sans-serif" font-size="14" lengthAdjust="spacing" textLength="46" x="667.96" y="471.8167">Impact</text><line style="stroke:#181818;stroke-width:0.5;" x1="639.96" x2="715.96" y1="482.97" y2="482.97"/><line style="stroke:#181818;stroke-width:0.5;" x1="639.96" x2="715.96" y1="490.97" y2="490.97"/></g><!--class Source--><g id="elem_Source"><rect codeLine="94" fill="#F1F1F1" height="96.8906" id="Source" rx="2.5" ry="2.5" style="stroke:#181818;stroke-width:0.5;" width="106" x="853.96" y="426.53"/><ellipse cx="880.21" cy="442.53" fill="#ADD1B2" rx="11" ry="11" style="stroke:#181818;stroke-width:1.0;"/><path d="M883.1787,448.1706 Q882.6006,448.4675 881.96,448.6081 Q881.3194,448.7644 880.6162,448.7644 Q878.1162,448.7644 876.7881,447.1238 Q875.4756,445.4675 875.4756,442.3425 Q875.4756,439.2175 876.7881,437.5613 Q878.1162,435.905 880.6162,435.905 Q881.3194,435.905 881.96,436.0613 Q882.6162,436.2175 883.1787,436.5144 L883.1787,439.2331 Q882.5537,438.655 881.96,438.3894 Q881.3662,438.1081 880.7412,438.1081 Q879.3975,438.1081 878.71,439.1863 Q878.0225,440.2488 878.0225,442.3425 Q878.0225,444.4363 878.71,445.5144 Q879.3975,446.5769 880.7412,446.5769 Q881.3662,446.5769 881.96,446.3113 Q882.5537,446.03 883.1787,445.4519 L883.1787,448.1706 Z " fill="#000000"/><text fill="#000000" font-family="sans-serif" font-size="14" lengthAdjust="spacing" textLength="49" x="896.71" y="447.3767">Source</text><line style="stroke:#181818;stroke-width:0.5;" x1="854.96" x2="958.96" y1="458.53" y2="458.53"/><text fill="#000000" font-family="sans-serif" font-size="14" lengthAdjust="spacing" textLength="83" x="859.96" y="475.5251">name:string</text><text fill="#000000" font-family="sans-serif" font-size="14" lengthAdjust="spacing" textLength="94" x="859.96" y="491.822">version:string</text><text fill="#000000" font-family="sans-serif" font-size="14" lengthAdjust="spacing" textLength="71" x="859.96" y="508.1189">href:string</text><line style="stroke:#181818;stroke-width:0.5;" x1="854.96" x2="958.96" y1="515.4206" y2="515.4206"/></g><!--class Impacts_By_Indicators--><g id="elem_Impacts_By_Indicators"><rect codeLine="31" fill="#F1F1F1" height="341.3438" id="Impacts_By_Indicators" rx="2.5" ry="2.5" style="stroke:#181818;stroke-width:0.5;" width="184" x="687.96" y="608.57"/><ellipse cx="702.96" cy="624.57" fill="#ADD1B2" rx="11" ry="11" style="stroke:#181818;stroke-width:1.0;"/><path d="M705.9287,630.2106 Q705.3506,630.5075 704.71,630.6481 Q704.0694,630.8044 703.3662,630.8044 Q700.8662,630.8044 699.5381,629.1638 Q698.2256,627.5075 698.2256,624.3825 Q698.2256,621.2575 699.5381,619.6013 Q700.8662,617.945 703.3662,617.945 Q704.0694,617.945 704.71,618.1013 Q705.3662,618.2575 705.9287,618.5544 L705.9287,621.2731 Q705.3037,620.695 704.71,620.4294 Q704.1162,620.1481 703.4912,620.1481 Q702.1475,620.1481 701.46,621.2263 Q700.7725,622.2888 700.7725,624.3825 Q700.7725,626.4763 701.46,627.5544 Q702.1475,628.6169 703.4912,628.6169 Q704.1162,628.6169 704.71,628.3513 Q705.3037,628.07 705.9287,627.4919 L705.9287,630.2106 Z " fill="#000000"/><text fill="#000000" font-family="sans-serif" font-size="14" lengthAdjust="spacing" textLength="152" x="716.96" y="629.4167">Impacts_By_Indicators</text><line style="stroke:#181818;stroke-width:0.5;" x1="688.96" x2="870.96" y1="640.57" y2="640.57"/><text fill="#000000" font-family="sans-serif" font-size="14" lengthAdjust="spacing" textLength="62" x="693.96" y="657.5651">AP:string</text><text fill="#000000" font-family="sans-serif" font-size="14" lengthAdjust="spacing" textLength="77" x="693.96" y="673.862">GWP:string</text><text fill="#000000" font-family="sans-serif" font-size="14" lengthAdjust="spacing" textLength="82" x="693.96" y="690.1589">CTUe:string</text><text fill="#000000" font-family="sans-serif" font-size="14" lengthAdjust="spacing" textLength="66" x="693.96" y="706.4557">Epf:string</text><text fill="#000000" font-family="sans-serif" font-size="14" lengthAdjust="spacing" textLength="75" x="693.96" y="722.7526">Epm:string</text><text fill="#000000" font-family="sans-serif" font-size="14" lengthAdjust="spacing" textLength="67" x="693.96" y="739.0495">Ept:string</text><text fill="#000000" font-family="sans-serif" font-size="14" lengthAdjust="spacing" textLength="95" x="693.96" y="755.3464">CTUh-c:string</text><text fill="#000000" font-family="sans-serif" font-size="14" lengthAdjust="spacing" textLength="104" x="693.96" y="771.6432">CTUh-nc:string</text><text fill="#000000" font-family="sans-serif" font-size="14" lengthAdjust="spacing" textLength="57" x="693.96" y="787.9401">IR:string</text><text fill="#000000" font-family="sans-serif" font-size="14" lengthAdjust="spacing" textLength="61" x="693.96" y="804.237">LU:string</text><text fill="#000000" font-family="sans-serif" font-size="14" lengthAdjust="spacing" textLength="77" x="693.96" y="820.5339">MIPS:string</text><text fill="#000000" font-family="sans-serif" font-size="14" lengthAdjust="spacing" textLength="75" x="693.96" y="836.8307">ODP:string</text><text fill="#000000" font-family="sans-serif" font-size="14" lengthAdjust="spacing" textLength="65" x="693.96" y="853.1276">PM:string</text><text fill="#000000" font-family="sans-serif" font-size="14" lengthAdjust="spacing" textLength="83" x="693.96" y="869.4245">POCP:string</text><text fill="#000000" font-family="sans-serif" font-size="14" lengthAdjust="spacing" textLength="77" x="693.96" y="885.7214">ADPf:string</text><text fill="#000000" font-family="sans-serif" font-size="14" lengthAdjust="spacing" textLength="82" x="693.96" y="902.0182">ADPe:string</text><text fill="#000000" font-family="sans-serif" font-size="14" lengthAdjust="spacing" textLength="71" x="693.96" y="918.3151">TPE:string</text><text fill="#000000" font-family="sans-serif" font-size="14" lengthAdjust="spacing" textLength="67" x="693.96" y="934.612">WU:string</text><line style="stroke:#181818;stroke-width:0.5;" x1="688.96" x2="870.96" y1="941.9138" y2="941.9138"/></g><!--class Impact_Detail--><g id="elem_Impact_Detail"><rect codeLine="21" fill="#F1F1F1" height="113.1875" id="Impact_Detail" rx="2.5" ry="2.5" style="stroke:#181818;stroke-width:0.5;" width="186" x="76.96" y="156.45"/><ellipse cx="119.86" cy="172.45" fill="#ADD1B2" rx="11" ry="11" style="stroke:#181818;stroke-width:1.0;"/><path d="M122.8287,178.0906 Q122.2506,178.3875 121.61,178.5281 Q120.9694,178.6844 120.2662,178.6844 Q117.7662,178.6844 116.4381,177.0437 Q115.1256,175.3875 115.1256,172.2625 Q115.1256,169.1375 116.4381,167.4812 Q117.7662,165.825 120.2662,165.825 Q120.9694,165.825 121.61,165.9812 Q122.2662,166.1375 122.8287,166.4344 L122.8287,169.1531 Q122.2037,168.575 121.61,168.3094 Q121.0162,168.0281 120.3912,168.0281 Q119.0475,168.0281 118.36,169.1062 Q117.6725,170.1687 117.6725,172.2625 Q117.6725,174.3562 118.36,175.4344 Q119.0475,176.4969 120.3912,176.4969 Q121.0162,176.4969 121.61,176.2312 Q122.2037,175.95 122.8287,175.3719 L122.8287,178.0906 Z " fill="#000000"/><text fill="#000000" font-family="sans-serif" font-size="14" lengthAdjust="spacing" textLength="92" x="140.06" y="177.2967">Impact_Detail</text><line style="stroke:#181818;stroke-width:0.5;" x1="77.96" x2="261.96" y1="188.45" y2="188.45"/><text fill="#000000" font-family="sans-serif" font-size="14" lengthAdjust="spacing" textLength="174" x="82.96" y="205.4451">equipement_name:string</text><text fill="#000000" font-family="sans-serif" font-size="14" lengthAdjust="spacing" textLength="74" x="82.96" y="221.742">tags:string</text><text fill="#000000" font-family="sans-serif" font-size="14" lengthAdjust="spacing" textLength="92" x="82.96" y="238.0389">source:string</text><text fill="#000000" font-family="sans-serif" font-size="14" lengthAdjust="spacing" textLength="100" x="82.96" y="254.3357">provider:string</text><line style="stroke:#181818;stroke-width:0.5;" x1="77.96" x2="261.96" y1="261.6375" y2="261.6375"/></g><!--class Quality--><g id="elem_Quality"><rect codeLine="73" fill="#F1F1F1" height="96.8906" id="Quality" rx="2.5" ry="2.5" style="stroke:#181818;stroke-width:0.5;" width="78" x="380.96" y="426.53"/><ellipse cx="395.96" cy="442.53" fill="#EB937F" rx="11" ry="11" style="stroke:#181818;stroke-width:1.0;"/><path d="M400.0694,448.53 L392.3506,448.53 L392.3506,436.1394 L400.0694,436.1394 L400.0694,438.2956 L394.8038,438.2956 L394.8038,440.9675 L399.5694,440.9675 L399.5694,443.1238 L394.8038,443.1238 L394.8038,446.3738 L400.0694,446.3738 L400.0694,448.53 Z " fill="#000000"/><text fill="#000000" font-family="sans-serif" font-size="14" lengthAdjust="spacing" textLength="46" x="409.96" y="447.3767">Quality</text><line style="stroke:#181818;stroke-width:0.5;" x1="381.96" x2="457.96" y1="458.53" y2="458.53"/><text fill="#000000" font-family="sans-serif" font-size="14" lengthAdjust="spacing" textLength="34" x="386.96" y="475.5251">HIGH</text><text fill="#000000" font-family="sans-serif" font-size="14" lengthAdjust="spacing" textLength="31" x="386.96" y="491.822">LOW</text><text fill="#000000" font-family="sans-serif" font-size="14" lengthAdjust="spacing" textLength="57" x="386.96" y="508.1189">MEDIUM</text><line style="stroke:#181818;stroke-width:0.5;" x1="381.96" x2="457.96" y1="515.4206" y2="515.4206"/></g><!--class Inventory--><g id="elem_Inventory"><rect codeLine="52" fill="#F1F1F1" height="162.0781" id="Inventory" rx="2.5" ry="2.5" style="stroke:#181818;stroke-width:0.5;" width="309" x="298.46" y="132"/><ellipse cx="417.21" cy="148" fill="#ADD1B2" rx="11" ry="11" style="stroke:#181818;stroke-width:1.0;"/><path d="M420.1788,153.6406 Q419.6006,153.9375 418.96,154.0781 Q418.3194,154.2344 417.6163,154.2344 Q415.1163,154.2344 413.7881,152.5938 Q412.4756,150.9375 412.4756,147.8125 Q412.4756,144.6875 413.7881,143.0313 Q415.1163,141.375 417.6163,141.375 Q418.3194,141.375 418.96,141.5313 Q419.6163,141.6875 420.1788,141.9844 L420.1788,144.7031 Q419.5538,144.125 418.96,143.8594 Q418.3663,143.5781 417.7413,143.5781 Q416.3975,143.5781 415.71,144.6563 Q415.0225,145.7188 415.0225,147.8125 Q415.0225,149.9063 415.71,150.9844 Q416.3975,152.0469 417.7413,152.0469 Q418.3663,152.0469 418.96,151.7813 Q419.5538,151.5 420.1788,150.9219 L420.1788,153.6406 Z " fill="#000000"/><text fill="#000000" font-family="sans-serif" font-size="14" lengthAdjust="spacing" textLength="63" x="437.71" y="152.8467">Inventory</text><line style="stroke:#181818;stroke-width:0.5;" x1="299.46" x2="606.46" y1="164" y2="164"/><text fill="#000000" font-family="sans-serif" font-size="14" lengthAdjust="spacing" textLength="174" x="304.46" y="180.9951">equipement_name:string</text><text fill="#000000" font-family="sans-serif" font-size="14" lengthAdjust="spacing" textLength="89" x="304.46" y="197.292">quantity:float</text><text fill="#000000" font-family="sans-serif" font-size="14" lengthAdjust="spacing" textLength="70" x="304.46" y="213.5889">unit:string</text><text fill="#000000" font-family="sans-serif" font-size="14" lengthAdjust="spacing" textLength="83" x="304.46" y="229.8857">lifetime:float</text><text fill="#000000" font-family="sans-serif" font-size="14" lengthAdjust="spacing" textLength="297" x="304.46" y="246.1826">yearly_electricity_consupmtion_in_kwh:float</text><text fill="#000000" font-family="sans-serif" font-size="14" lengthAdjust="spacing" textLength="138" x="304.46" y="262.4795">electricity_Mix:string</text><text fill="#000000" font-family="sans-serif" font-size="14" lengthAdjust="spacing" textLength="66" x="304.46" y="278.7764">tag:string</text><line style="stroke:#181818;stroke-width:0.5;" x1="299.46" x2="606.46" y1="286.0781" y2="286.0781"/></g><!--class Metadata--><g id="elem_Metadata"><rect codeLine="65" fill="#F1F1F1" height="129.4844" id="Metadata" rx="2.5" ry="2.5" style="stroke:#181818;stroke-width:0.5;" width="141" x="955.46" y="148.3"/><ellipse cx="990.71" cy="164.3" fill="#ADD1B2" rx="11" ry="11" style="stroke:#181818;stroke-width:1.0;"/><path d="M993.6787,169.9406 Q993.1006,170.2375 992.46,170.3781 Q991.8194,170.5344 991.1162,170.5344 Q988.6162,170.5344 987.2881,168.8937 Q985.9756,167.2375 985.9756,164.1125 Q985.9756,160.9875 987.2881,159.3312 Q988.6162,157.675 991.1162,157.675 Q991.8194,157.675 992.46,157.8312 Q993.1162,157.9875 993.6787,158.2844 L993.6787,161.0031 Q993.0537,160.425 992.46,160.1594 Q991.8662,159.8781 991.2412,159.8781 Q989.8975,159.8781 989.21,160.9562 Q988.5225,162.0187 988.5225,164.1125 Q988.5225,166.2062 989.21,167.2844 Q989.8975,168.3469 991.2412,168.3469 Q991.8662,168.3469 992.46,168.0812 Q993.0537,167.8 993.6787,167.2219 L993.6787,169.9406 Z " fill="#000000"/><text fill="#000000" font-family="sans-serif" font-size="14" lengthAdjust="spacing" textLength="64" x="1009.21" y="169.1467">Metadata</text><line style="stroke:#181818;stroke-width:0.5;" x1="956.46" x2="1095.46" y1="180.3" y2="180.3"/><text fill="#000000" font-family="sans-serif" font-size="14" lengthAdjust="spacing" textLength="129" x="961.46" y="197.2951">organization:string</text><text fill="#000000" font-family="sans-serif" font-size="14" lengthAdjust="spacing" textLength="96" x="961.46" y="213.592">dataset:string</text><text fill="#000000" font-family="sans-serif" font-size="14" lengthAdjust="spacing" textLength="117" x="961.46" y="229.8889">timestamp:string</text><text fill="#000000" font-family="sans-serif" font-size="14" lengthAdjust="spacing" textLength="100" x="961.46" y="246.1857">provider:string</text><text fill="#000000" font-family="sans-serif" font-size="14" lengthAdjust="spacing" textLength="94" x="961.46" y="262.4826">version:string</text><line style="stroke:#181818;stroke-width:0.5;" x1="956.46" x2="1095.46" y1="269.7844" y2="269.7844"/></g><!--class Report--><g id="elem_Report"><rect codeLine="79" fill="#F1F1F1" height="48" id="Report" rx="2.5" ry="2.5" style="stroke:#181818;stroke-width:0.5;" width="79" x="818.46" y="7"/><ellipse cx="833.46" cy="23" fill="#ADD1B2" rx="11" ry="11" style="stroke:#181818;stroke-width:1.0;"/><path d="M836.4287,28.6406 Q835.8506,28.9375 835.21,29.0781 Q834.5694,29.2344 833.8662,29.2344 Q831.3662,29.2344 830.0381,27.5938 Q828.7256,25.9375 828.7256,22.8125 Q828.7256,19.6875 830.0381,18.0313 Q831.3662,16.375 833.8662,16.375 Q834.5694,16.375 835.21,16.5313 Q835.8662,16.6875 836.4287,16.9844 L836.4287,19.7031 Q835.8037,19.125 835.21,18.8594 Q834.6162,18.5781 833.9912,18.5781 Q832.6475,18.5781 831.96,19.6563 Q831.2725,20.7188 831.2725,22.8125 Q831.2725,24.9063 831.96,25.9844 Q832.6475,27.0469 833.9912,27.0469 Q834.6162,27.0469 835.21,26.7813 Q835.8037,26.5 836.4287,25.9219 L836.4287,28.6406 Z " fill="#000000"/><text fill="#000000" font-family="sans-serif" font-size="14" lengthAdjust="spacing" textLength="47" x="847.46" y="27.8467">Report</text><line style="stroke:#181818;stroke-width:0.5;" x1="819.46" x2="896.46" y1="39" y2="39"/><line style="stroke:#181818;stroke-width:0.5;" x1="819.46" x2="896.46" y1="47" y2="47"/></g><!--class Tag--><g id="elem_Tag"><rect codeLine="100" fill="#F1F1F1" height="64.2969" id="Tag" rx="2.5" ry="2.5" style="stroke:#181818;stroke-width:0.5;" width="95" x="1071.46" y="324.08"/><ellipse cx="1103.11" cy="340.08" fill="#ADD1B2" rx="11" ry="11" style="stroke:#181818;stroke-width:1.0;"/><path d="M1106.0788,345.7206 Q1105.5006,346.0175 1104.86,346.1581 Q1104.2194,346.3144 1103.5163,346.3144 Q1101.0163,346.3144 1099.6881,344.6737 Q1098.3756,343.0175 1098.3756,339.8925 Q1098.3756,336.7675 1099.6881,335.1112 Q1101.0163,333.455 1103.5163,333.455 Q1104.2194,333.455 1104.86,333.6112 Q1105.5163,333.7675 1106.0788,334.0644 L1106.0788,336.7831 Q1105.4538,336.205 1104.86,335.9394 Q1104.2663,335.6581 1103.6413,335.6581 Q1102.2975,335.6581 1101.61,336.7362 Q1100.9225,337.7987 1100.9225,339.8925 Q1100.9225,341.9862 1101.61,343.0644 Q1102.2975,344.1269 1103.6413,344.1269 Q1104.2663,344.1269 1104.86,343.8612 Q1105.4538,343.58 1106.0788,343.0019 L1106.0788,345.7206 Z " fill="#000000"/><text fill="#000000" font-family="sans-serif" font-size="14" lengthAdjust="spacing" textLength="26" x="1120.81" y="344.9267">Tag</text><line style="stroke:#181818;stroke-width:0.5;" x1="1072.46" x2="1165.46" y1="356.08" y2="356.08"/><text fill="#000000" font-family="sans-serif" font-size="14" lengthAdjust="spacing" textLength="83" x="1077.46" y="373.0751">name:string</text><line style="stroke:#181818;stroke-width:0.5;" x1="1072.46" x2="1165.46" y1="380.3769" y2="380.3769"/></g><!--class Report_Quality--><g id="elem_Report_Quality"><rect codeLine="88" fill="#F1F1F1" height="96.8906" id="Report_Quality" rx="2.5" ry="2.5" style="stroke:#181818;stroke-width:0.5;" width="132" x="1201.96" y="164.6"/><ellipse cx="1216.96" cy="180.6" fill="#ADD1B2" rx="11" ry="11" style="stroke:#181818;stroke-width:1.0;"/><path d="M1219.9288,186.2406 Q1219.3506,186.5375 1218.71,186.6781 Q1218.0694,186.8344 1217.3663,186.8344 Q1214.8663,186.8344 1213.5381,185.1938 Q1212.2256,183.5375 1212.2256,180.4125 Q1212.2256,177.2875 1213.5381,175.6313 Q1214.8663,173.975 1217.3663,173.975 Q1218.0694,173.975 1218.71,174.1313 Q1219.3663,174.2875 1219.9288,174.5844 L1219.9288,177.3031 Q1219.3038,176.725 1218.71,176.4594 Q1218.1163,176.1781 1217.4913,176.1781 Q1216.1475,176.1781 1215.46,177.2563 Q1214.7725,178.3188 1214.7725,180.4125 Q1214.7725,182.5063 1215.46,183.5844 Q1216.1475,184.6469 1217.4913,184.6469 Q1218.1163,184.6469 1218.71,184.3813 Q1219.3038,184.1 1219.9288,183.5219 L1219.9288,186.2406 Z " fill="#000000"/><text fill="#000000" font-family="sans-serif" font-size="14" lengthAdjust="spacing" textLength="100" x="1230.96" y="185.4467">Report_Quality</text><line style="stroke:#181818;stroke-width:0.5;" x1="1202.96" x2="1332.96" y1="196.6" y2="196.6"/><text fill="#000000" font-family="sans-serif" font-size="14" lengthAdjust="spacing" textLength="64" x="1207.96" y="213.5951">high:float</text><text fill="#000000" font-family="sans-serif" font-size="14" lengthAdjust="spacing" textLength="90" x="1207.96" y="229.892">medium:float</text><text fill="#000000" font-family="sans-serif" font-size="14" lengthAdjust="spacing" textLength="57" x="1207.96" y="246.1889">low:float</text><line style="stroke:#181818;stroke-width:0.5;" x1="1202.96" x2="1332.96" y1="253.4906" y2="253.4906"/></g><!--link Electricity_Mix to Impact--><g id="link_Electricity_Mix_Impact"><path codeLine="12" d="M836.06,245.66 C799.43,298.56 729.9553,398.8768 697.5553,445.6768 " fill="none" id="Electricity_Mix-to-Impact" style="stroke:#181818;stroke-width:1.0;"/><polygon fill="#181818" points="694.14,450.61,702.5517,445.4871,696.986,446.499,695.9741,440.9334,694.14,450.61" style="stroke:#181818;stroke-width:1.0;"/><text fill="#000000" font-family="sans-serif" font-size="13" lengthAdjust="spacing" textLength="44" x="779.96" y="360.7969">impact</text><text fill="#000000" font-family="sans-serif" font-size="13" lengthAdjust="spacing" textLength="21" x="700.6433" y="439.9272">1-1</text></g><!--link Electricity_Mix to Source--><g id="link_Electricity_Mix_Source"><path codeLine="13" d="M863.92,245.66 C872.41,290.71 886.9481,367.8439 896.8581,420.3939 " fill="none" id="Electricity_Mix-to-Source" style="stroke:#181818;stroke-width:1.0;"/><polygon fill="#181818" points="897.97,426.29,900.2329,416.7046,897.0434,421.3766,892.3714,418.1872,897.97,426.29" style="stroke:#181818;stroke-width:1.0;"/><text fill="#000000" font-family="sans-serif" font-size="13" lengthAdjust="spacing" textLength="43" x="889.96" y="360.7969">source</text><text fill="#000000" font-family="sans-serif" font-size="13" lengthAdjust="spacing" textLength="21" x="874.2292" y="415.4652">1-1</text></g><!--link Impact to Impacts_By_Indicators--><g id="link_Impact_Impacts_By_Indicators"><path codeLine="16" d="M699.66,499.21 C713.63,515.47 730.97,538.35 740.96,561.57 C747.34,576.4 751.0791,586.4575 755.5391,602.5675 " fill="none" id="Impact-to-Impacts_By_Indicators" style="stroke:#181818;stroke-width:1.0;"/><polygon fill="#181818" points="757.14,608.35,758.5937,598.609,755.8059,603.5313,750.8837,600.7435,757.14,608.35" style="stroke:#181818;stroke-width:1.0;"/><text fill="#000000" font-family="sans-serif" font-size="13" lengthAdjust="spacing" textLength="30" x="748.96" y="574.6369">build</text><text fill="#000000" font-family="sans-serif" font-size="13" lengthAdjust="spacing" textLength="21" x="734.6302" y="597.3365">1-1</text></g><!--link Impact to Impacts_By_Indicators--><g id="link_Impact_Impacts_By_Indicators"><path codeLine="17" d="M717.45,494.8 C742.69,509.2 773.34,531.68 787.96,561.57 C795.11,576.19 798.6774,586.1329 801.2374,602.4029 " fill="none" id="Impact-to-Impacts_By_Indicators-1" style="stroke:#181818;stroke-width:1.0;"/><polygon fill="#181818" points="802.17,608.33,804.7225,598.8177,801.3928,603.3908,796.8197,600.0611,802.17,608.33" style="stroke:#181818;stroke-width:1.0;"/><text fill="#000000" font-family="sans-serif" font-size="13" lengthAdjust="spacing" textLength="71" x="795.96" y="574.6369">distribution</text><text fill="#000000" font-family="sans-serif" font-size="13" lengthAdjust="spacing" textLength="21" x="781.7006" y="597.3156">1-1</text></g><!--link Impact to Impacts_By_Indicators--><g id="link_Impact_Impacts_By_Indicators"><path codeLine="18" d="M646.49,499.1 C623.8,518.83 598.96,548.69 609.96,578.57 C626.15,622.57 652.7523,659.0979 683.6423,692.2879 " fill="none" id="Impact-to-Impacts_By_Indicators-2" style="stroke:#181818;stroke-width:1.0;"/><polygon fill="#181818" points="687.73,696.68,684.5265,687.3667,684.3236,693.0199,678.6703,692.817,687.73,696.68" style="stroke:#181818;stroke-width:1.0;"/><text fill="#000000" font-family="sans-serif" font-size="13" lengthAdjust="spacing" textLength="23" x="610.96" y="574.6369">use</text><text fill="#000000" font-family="sans-serif" font-size="13" lengthAdjust="spacing" textLength="21" x="658.8647" y="686.8566">1-1</text></g><!--link Impact to Impacts_By_Indicators--><g id="link_Impact_Impacts_By_Indicators"><path codeLine="19" d="M672.27,499.17 C668.07,520.21 664.16,551.93 670.96,578.57 C675.08,594.73 678.4931,605.4696 685.1831,621.3696 " fill="none" id="Impact-to-Impacts_By_Indicators-3" style="stroke:#181818;stroke-width:1.0;"/><polygon fill="#181818" points="687.51,626.9,687.7065,617.0531,685.5709,622.2913,680.3327,620.1557,687.51,626.9" style="stroke:#181818;stroke-width:1.0;"/><text fill="#000000" font-family="sans-serif" font-size="13" lengthAdjust="spacing" textLength="60" x="671.96" y="574.6369">endOfLife</text><text fill="#000000" font-family="sans-serif" font-size="13" lengthAdjust="spacing" textLength="21" x="658.9496" y="612.2334">1-1</text></g><!--link Impact_Detail to EQUIPEMENT_TYPE--><g id="link_Impact_Detail_EQUIPEMENT_TYPE"><path codeLine="27" d="M76.54,261.42 C53.54,277.92 31.82,298.78 18.96,324.08 C6,349.55 8.14,361.93 18.96,388.38 C23.25,398.88 25.7908,404.0897 33.0108,413.1897 " fill="none" id="Impact_Detail-to-EQUIPEMENT_TYPE" style="stroke:#181818;stroke-width:1.0;"/><polygon fill="#181818" points="36.74,417.89,34.2797,408.3534,33.6323,413.9731,28.0126,413.3257,36.74,417.89" style="stroke:#181818;stroke-width:1.0;"/><text fill="#000000" font-family="sans-serif" font-size="13" lengthAdjust="spacing" textLength="112" x="19.96" y="360.7969">equipement_type</text><text fill="#000000" font-family="sans-serif" font-size="13" lengthAdjust="spacing" textLength="21" x="6.8692" y="407.4971">1-1</text></g><!--link Impact_Detail to Quality--><g id="link_Impact_Detail_Quality"><path codeLine="28" d="M155.59,269.86 C149.48,306.89 148.53,354.68 172.96,388.38 C197.76,422.6 311.3452,451.0634 374.5952,464.7234 " fill="none" id="Impact_Detail-to-Quality" style="stroke:#181818;stroke-width:1.0;"/><polygon fill="#181818" points="380.46,465.99,372.5072,460.1802,375.5727,464.9345,370.8184,467.9999,380.46,465.99" style="stroke:#181818;stroke-width:1.0;"/><text fill="#000000" font-family="sans-serif" font-size="13" lengthAdjust="spacing" textLength="42" x="173.96" y="360.7969">quality</text><text fill="#000000" font-family="sans-serif" font-size="13" lengthAdjust="spacing" textLength="21" x="352.1163" y="460.6454">1-1</text></g><!--link Impact_Detail to Impact--><g id="link_Impact_Detail_Impact"><path codeLine="29" d="M195.74,269.79 C219.1,320.06 250.27,386.42 252.96,388.38 C293.36,417.84 426.96,408.39 475.96,418.38 C533.16,430.04 592.2963,447.1624 632.7463,459.6324 " fill="none" id="Impact_Detail-to-Impact" style="stroke:#181818;stroke-width:1.0;"/><polygon fill="#181818" points="638.48,461.4,631.0578,454.9261,633.7019,459.927,628.701,462.5711,638.48,461.4" style="stroke:#181818;stroke-width:1.0;"/><text fill="#000000" font-family="sans-serif" font-size="13" lengthAdjust="spacing" textLength="44" x="253.96" y="360.7969">impact</text><text fill="#000000" font-family="sans-serif" font-size="13" lengthAdjust="spacing" textLength="21" x="609.8268" y="455.2507">1-1</text></g><!--link Inventory to EQUIPEMENT_TYPE--><g id="link_Inventory_EQUIPEMENT_TYPE"><path codeLine="61" d="M363.49,294.41 C354.72,304 346.35,313.99 338.96,324.08 C320.09,349.83 330.24,366.55 306.96,388.38 C273.4,419.83 232.3025,438.7241 191.9925,451.9141 " fill="none" id="Inventory-to-EQUIPEMENT_TYPE" style="stroke:#181818;stroke-width:1.0;"/><polygon fill="#181818" points="186.29,453.78,196.0877,454.7828,191.0421,452.2251,193.5998,447.1794,186.29,453.78" style="stroke:#181818;stroke-width:1.0;"/><text fill="#000000" font-family="sans-serif" font-size="13" lengthAdjust="spacing" textLength="112" x="339.96" y="360.7969">equipement_type</text><text fill="#000000" font-family="sans-serif" font-size="13" lengthAdjust="spacing" textLength="21" x="194.0603" y="448.4762">1-1</text></g><!--link Inventory to Quality--><g id="link_Inventory_Quality"><path codeLine="62" d="M465.56,294.25 C467.92,324.11 467.84,358.09 460.96,388.38 C458.04,401.23 455.4798,408.9741 449.8498,421.0241 " fill="none" id="Inventory-to-Quality" style="stroke:#181818;stroke-width:1.0;"/><polygon fill="#181818" points="447.31,426.46,454.7436,419.9993,449.4265,421.93,447.4957,416.6129,447.31,426.46" style="stroke:#181818;stroke-width:1.0;"/><text fill="#000000" font-family="sans-serif" font-size="13" lengthAdjust="spacing" textLength="42" x="467.96" y="360.7969">quality</text><text fill="#000000" font-family="sans-serif" font-size="13" lengthAdjust="spacing" textLength="21" x="428.7848" y="415.3094">1-1</text></g><!--link Inventory to Impact--><g id="link_Inventory_Impact"><path codeLine="63" d="M519.03,294.57 C543.79,324.32 572.37,358.14 598.96,388.38 C617.78,409.79 635.7341,429.2049 651.7441,446.2649 " fill="none" id="Inventory-to-Impact" style="stroke:#181818;stroke-width:1.0;"/><polygon fill="#181818" points="655.85,450.64,652.608,441.34,652.4284,446.994,646.7744,446.8145,655.85,450.64" style="stroke:#181818;stroke-width:1.0;"/><text fill="#000000" font-family="sans-serif" font-size="13" lengthAdjust="spacing" textLength="51" x="599.96" y="360.7969">impacts</text><text fill="#000000" font-family="sans-serif" font-size="13" lengthAdjust="spacing" textLength="21" x="653.0201" y="439.9645">1-1</text></g><!--link Metadata to Source--><g id="link_Metadata_Source"><path codeLine="72" d="M996.69,277.96 C975.7,323.81 950.3778,379.1346 931.3078,420.7846 " fill="none" id="Metadata-to-Source" style="stroke:#181818;stroke-width:1.0;"/><polygon fill="#181818" points="928.81,426.24,936.1936,419.7222,930.8915,421.6939,928.9198,416.3918,928.81,426.24" style="stroke:#181818;stroke-width:1.0;"/><text fill="#000000" font-family="sans-serif" font-size="13" lengthAdjust="spacing" textLength="50" x="973.96" y="360.7969">sources</text><text fill="#000000" font-family="sans-serif" font-size="13" lengthAdjust="spacing" textLength="20" x="910.4764" y="415.4081">0-*</text></g><!--link Report to Metadata--><g id="link_Report_Metadata"><path codeLine="80" d="M897.95,46.34 C918.12,55.1 941.86,67.94 958.96,85 C976.69,102.71 988.2071,120.6937 998.8371,142.5637 " fill="none" id="Report-to-Metadata" style="stroke:#181818;stroke-width:1.0;"/><polygon fill="#181818" points="1001.46,147.96,1001.1232,138.1169,999.2742,143.4631,993.9281,141.6141,1001.46,147.96" style="stroke:#181818;stroke-width:1.0;"/><text fill="#000000" font-family="sans-serif" font-size="13" lengthAdjust="spacing" textLength="63" x="971.96" y="98.0669">metadata</text><text fill="#000000" font-family="sans-serif" font-size="13" lengthAdjust="spacing" textLength="21" x="976.6319" y="137.0955">0-1</text></g><!--link Report to Impact--><g id="link_Report_Impact"><path codeLine="81" d="M818.17,44.23 C779.3,58.5 722.13,86.17 694.96,132 C663.05,185.82 671.7483,376.3615 675.9783,444.5115 " fill="none" id="Report-to-Impact" style="stroke:#181818;stroke-width:1.0;"/><polygon fill="#181818" points="676.35,450.5,679.7848,441.2695,676.0403,445.5096,671.8001,441.7651,676.35,450.5" style="stroke:#181818;stroke-width:1.0;"/><text fill="#000000" font-family="sans-serif" font-size="13" lengthAdjust="spacing" textLength="80" x="695.96" y="217.6069">total_impact</text><text fill="#000000" font-family="sans-serif" font-size="13" lengthAdjust="spacing" textLength="21" x="678.5169" y="439.7904">0-1</text></g><!--link Report to Tag--><g id="link_Report_Tag"><path codeLine="82" d="M897.81,33.04 C958.61,37.12 1071.91,55.21 1113.96,132 C1147.37,193.04 1137.6235,272.3582 1128.0735,317.8182 " fill="none" id="Report-to-Tag" style="stroke:#181818;stroke-width:1.0;"/><polygon fill="#181818" points="1126.84,323.69,1132.6048,315.7046,1127.8679,318.7968,1124.7757,314.0599,1126.84,323.69" style="stroke:#181818;stroke-width:1.0;"/><text fill="#000000" font-family="sans-serif" font-size="13" lengthAdjust="spacing" textLength="28" x="1088.96" y="98.0669">tags</text><text fill="#000000" font-family="sans-serif" font-size="13" lengthAdjust="spacing" textLength="20" x="1106.4359" y="313.1372">0-*</text></g><!--link Report to Inventory--><g id="link_Report_Inventory"><path codeLine="83" d="M818.22,33.23 C764.06,36.35 665.32,47.23 590.96,85 C567.58,96.88 549.7261,109.8222 530.1061,127.5122 " fill="none" id="Report-to-Inventory" style="stroke:#181818;stroke-width:1.0;"/><polygon fill="#181818" points="525.65,131.53,535.0128,128.4741,529.3635,128.1818,529.6557,122.5325,525.65,131.53" style="stroke:#181818;stroke-width:1.0;"/><text fill="#000000" font-family="sans-serif" font-size="13" lengthAdjust="spacing" textLength="59" x="591.96" y="98.0669">inventory</text><text fill="#000000" font-family="sans-serif" font-size="13" lengthAdjust="spacing" textLength="20" x="511.0374" y="120.9534">0-*</text></g><!--link Report to Report_Quality--><g id="link_Report_Report_Quality"><path codeLine="84" d="M897.95,34.38 C974.88,39.6 1140,54.14 1186.96,85 C1215.59,103.82 1233.5342,131.2406 1246.7642,158.8106 " fill="none" id="Report-to-Report_Quality" style="stroke:#181818;stroke-width:1.0;"/><polygon fill="#181818" points="1249.36,164.22,1249.0726,154.3753,1247.1968,159.7122,1241.86,157.8364,1249.36,164.22" style="stroke:#181818;stroke-width:1.0;"/><text fill="#000000" font-family="sans-serif" font-size="13" lengthAdjust="spacing" textLength="42" x="1205.96" y="98.0669">quality</text><text fill="#000000" font-family="sans-serif" font-size="13" lengthAdjust="spacing" textLength="21" x="1224.2678" y="153.3755">0-1</text></g><!--link Report to Impact_Detail--><g id="link_Report_Impact_Detail"><path codeLine="85" d="M818.31,31.64 C721.5,32.26 467.4,42.92 280.96,132 C267.02,138.66 257.9836,143.7439 244.8236,152.6239 " fill="none" id="Report-to-Impact_Detail" style="stroke:#181818;stroke-width:1.0;"/><polygon fill="#181818" points="239.85,155.98,249.5478,154.2617,243.9947,153.1833,245.0731,147.6302,239.85,155.98" style="stroke:#181818;stroke-width:1.0;"/><text fill="#000000" font-family="sans-serif" font-size="13" lengthAdjust="spacing" textLength="102" x="401.96" y="98.0669">detailed_impact</text><text fill="#000000" font-family="sans-serif" font-size="13" lengthAdjust="spacing" textLength="20" x="227.1491" y="145.1863">0-*</text></g><!--link Report to Electricity_Mix--><g id="link_Report_Electricity_Mix"><path codeLine="86" d="M857.96,55.17 C857.96,87.08 857.96,138.67 857.96,174.49 " fill="none" id="Report-to-Electricity_Mix" style="stroke:#181818;stroke-width:1.0;"/><polygon fill="#181818" points="857.96,180.49,861.96,171.49,857.96,175.49,853.96,171.49,857.96,180.49" style="stroke:#181818;stroke-width:1.0;"/><text fill="#000000" font-family="sans-serif" font-size="13" lengthAdjust="spacing" textLength="91" x="858.96" y="98.0669">electricity_mix</text><text fill="#000000" font-family="sans-serif" font-size="13" lengthAdjust="spacing" textLength="20" x="836.0537" y="169.9353">0-*</text></g><!--link Tag to Impacts_By_Indicators--><g id="link_Tag_Impacts_By_Indicators"><path codeLine="103" d="M1093.48,388.87 C1047.13,446.43 950.6832,566.2168 875.9532,659.0168 " fill="none" id="Tag-to-Impacts_By_Indicators" style="stroke:#181818;stroke-width:1.0;"/><polygon fill="#181818" points="872.19,663.69,880.9502,659.1891,875.326,659.7957,874.7194,654.1715,872.19,663.69" style="stroke:#181818;stroke-width:1.0;"/><text fill="#000000" font-family="sans-serif" font-size="13" lengthAdjust="spacing" textLength="51" x="1068.96" y="479.5369">impacts</text><text fill="#000000" font-family="sans-serif" font-size="13" lengthAdjust="spacing" textLength="21" x="880.0553" y="651.3408">1-1</text></g><!--SRC=[bLN1RgCm4BtdAwmULugqlN9OAKsi1Ya4ca2ZFLakcCGg68fDMdQr_xws2M0Jb2gtcV7CUERD6vkmEWVm9N83wC5jYCBV0GH_Pm20pI88_K19Mpy4RgYaFTozmfsINjrT62qsm5iir-uMplxDPd66EGSm8x6eQ4n5WppwrUPYE2SEbsPsb9xICFQQpt-1XyVvumDmynB70ZY0Qk6syxwegvX8Pww5hWQt3xra6wVdwAb1BajeZ4LHSPdWhQPPSbT4GbL3RxMW1RihiERaBd_24Z_Tq7JK7beHWMdM0am-QbgId321JApbYS17RgWjK8QXh8epJKXbZSU-OIXnJ1J7l5Wq9RaL_5BZJ8vG1dsqqYtdCGsiriSOQGWMWT7Lyy7Kbc5ajWpBrD9oInDsu6aUZmtCjBWxGzb4XkAvmTvG_PLPKk2PYhyqpnQh8BLLi_emW8PsY8R1THYninn7KJNVKKEEWGav1oVD2gpNfMRKR3-Jf1DKnlGE3S5LrY1YR6HSC5wNkLe3H1bw_pmDxiJUN9kMDkFwekzbsqJWDDCc74Siuns4dgHZWWLk4Iog8sRq3rOj6Yqe1qvCl1HMNE2ylB5VqdGc5JTIwVxx6tLnF-S_hXutFYFghUvwqvMjtUUrvfr_q4dWoesyWGaxKXQL7aGhTSbbv_rz3iWlugHVZv0e1CxGy2ZRdhBS41-Lctnk9ey7-2NQdJnvPMj0aqEyJckz7_9LrW99RbKw_aySYwSv_RBnGnRa9teq29wJXDRve6V5vqNfXt0PuzK_U4q4bRqYwTL2AsIdlr5rylq7qf7xFm00]--></g></svg>