<?xml version="1.0" encoding="windows-1252" standalone="no"?>
<svg xmlns="http://www.w3.org/2000/svg" xmlns:xlink="http://www.w3.org/1999/xlink" contentStyleType="text/css" height="956px" preserveAspectRatio="none" style="width:1125px;height:956px;background:#FFFFFF;" version="1.1" viewBox="0 0 1125 956" width="1125px" zoomAndPan="magnify"><defs/><g><!--class EQUIPEMENT_TYPE--><g id="elem_EQUIPEMENT_TYPE"><rect codeLine="2" fill="#F1F1F1" height="113.1875" id="EQUIPEMENT_TYPE" rx="2.5" ry="2.5" style="stroke:#181818;stroke-width:0.5;" width="166" x="342.48" y="418.38"/><ellipse cx="357.48" cy="434.38" fill="#EB937F" rx="11" ry="11" style="stroke:#181818;stroke-width:1.0;"/><path d="M361.5894,440.38 L353.8706,440.38 L353.8706,427.9894 L361.5894,427.9894 L361.5894,430.1456 L356.3237,430.1456 L356.3237,432.8175 L361.0894,432.8175 L361.0894,434.9738 L356.3237,434.9738 L356.3237,438.2238 L361.5894,438.2238 L361.5894,440.38 Z " fill="#000000"/><text fill="#000000" font-family="sans-serif" font-size="14" lengthAdjust="spacing" textLength="134" x="371.48" y="439.2267">EQUIPEMENT_TYPE</text><line style="stroke:#181818;stroke-width:0.5;" x1="343.48" x2="507.48" y1="450.38" y2="450.38"/><text fill="#000000" font-family="sans-serif" font-size="14" lengthAdjust="spacing" textLength="56" x="348.48" y="467.3751">SERVER</text><text fill="#000000" font-family="sans-serif" font-size="14" lengthAdjust="spacing" textLength="124" x="348.48" y="483.672">VIRTUAL MACHINE</text><text fill="#000000" font-family="sans-serif" font-size="14" lengthAdjust="spacing" textLength="46" x="348.48" y="499.9689">NOT IT</text><text fill="#000000" font-family="sans-serif" font-size="14" lengthAdjust="spacing" textLength="54" x="348.48" y="516.2657">LAPTOP</text><line style="stroke:#181818;stroke-width:0.5;" x1="343.48" x2="507.48" y1="523.5675" y2="523.5675"/></g><!--class Impact--><g id="elem_Impact"><rect codeLine="9" fill="#F1F1F1" height="48" id="Impact" rx="2.5" ry="2.5" style="stroke:#181818;stroke-width:0.5;" width="78" x="220.48" y="450.97"/><ellipse cx="235.48" cy="466.97" fill="#ADD1B2" rx="11" ry="11" style="stroke:#181818;stroke-width:1.0;"/><path d="M238.4488,472.6106 Q237.8706,472.9075 237.23,473.0481 Q236.5894,473.2044 235.8863,473.2044 Q233.3863,473.2044 232.0581,471.5637 Q230.7456,469.9075 230.7456,466.7825 Q230.7456,463.6575 232.0581,462.0012 Q233.3863,460.345 235.8863,460.345 Q236.5894,460.345 237.23,460.5012 Q237.8863,460.6575 238.4488,460.9544 L238.4488,463.6731 Q237.8238,463.095 237.23,462.8294 Q236.6363,462.5481 236.0113,462.5481 Q234.6675,462.5481 233.98,463.6262 Q233.2925,464.6887 233.2925,466.7825 Q233.2925,468.8762 233.98,469.9544 Q234.6675,471.0169 236.0113,471.0169 Q236.6363,471.0169 237.23,470.7512 Q237.8238,470.47 238.4488,469.8919 L238.4488,472.6106 Z " fill="#000000"/><text fill="#000000" font-family="sans-serif" font-size="14" lengthAdjust="spacing" textLength="46" x="249.48" y="471.8167">Impact</text><line style="stroke:#181818;stroke-width:0.5;" x1="221.48" x2="297.48" y1="482.97" y2="482.97"/><line style="stroke:#181818;stroke-width:0.5;" x1="221.48" x2="297.48" y1="490.97" y2="490.97"/></g><!--class ImpactsByIndicators--><g id="elem_ImpactsByIndicators"><rect codeLine="25" fill="#F1F1F1" height="341.3438" id="ImpactsByIndicators" rx="2.5" ry="2.5" style="stroke:#181818;stroke-width:0.5;" width="170" x="246.48" y="608.57"/><ellipse cx="261.48" cy="624.57" fill="#ADD1B2" rx="11" ry="11" style="stroke:#181818;stroke-width:1.0;"/><path d="M264.4488,630.2106 Q263.8706,630.5075 263.23,630.6481 Q262.5894,630.8044 261.8863,630.8044 Q259.3863,630.8044 258.0581,629.1638 Q256.7456,627.5075 256.7456,624.3825 Q256.7456,621.2575 258.0581,619.6013 Q259.3863,617.945 261.8863,617.945 Q262.5894,617.945 263.23,618.1013 Q263.8863,618.2575 264.4488,618.5544 L264.4488,621.2731 Q263.8238,620.695 263.23,620.4294 Q262.6363,620.1481 262.0113,620.1481 Q260.6675,620.1481 259.98,621.2263 Q259.2925,622.2888 259.2925,624.3825 Q259.2925,626.4763 259.98,627.5544 Q260.6675,628.6169 262.0113,628.6169 Q262.6363,628.6169 263.23,628.3513 Q263.8238,628.07 264.4488,627.4919 L264.4488,630.2106 Z " fill="#000000"/><text fill="#000000" font-family="sans-serif" font-size="14" lengthAdjust="spacing" textLength="138" x="275.48" y="629.4167">ImpactsByIndicators</text><line style="stroke:#181818;stroke-width:0.5;" x1="247.48" x2="415.48" y1="640.57" y2="640.57"/><text fill="#000000" font-family="sans-serif" font-size="14" lengthAdjust="spacing" textLength="62" x="252.48" y="657.5651">AP:string</text><text fill="#000000" font-family="sans-serif" font-size="14" lengthAdjust="spacing" textLength="77" x="252.48" y="673.862">GWP:string</text><text fill="#000000" font-family="sans-serif" font-size="14" lengthAdjust="spacing" textLength="82" x="252.48" y="690.1589">CTUe:string</text><text fill="#000000" font-family="sans-serif" font-size="14" lengthAdjust="spacing" textLength="66" x="252.48" y="706.4557">Epf:string</text><text fill="#000000" font-family="sans-serif" font-size="14" lengthAdjust="spacing" textLength="75" x="252.48" y="722.7526">Epm:string</text><text fill="#000000" font-family="sans-serif" font-size="14" lengthAdjust="spacing" textLength="67" x="252.48" y="739.0495">Ept:string</text><text fill="#000000" font-family="sans-serif" font-size="14" lengthAdjust="spacing" textLength="95" x="252.48" y="755.3464">CTUh-c:string</text><text fill="#000000" font-family="sans-serif" font-size="14" lengthAdjust="spacing" textLength="104" x="252.48" y="771.6432">CTUh-nc:string</text><text fill="#000000" font-family="sans-serif" font-size="14" lengthAdjust="spacing" textLength="57" x="252.48" y="787.9401">IR:string</text><text fill="#000000" font-family="sans-serif" font-size="14" lengthAdjust="spacing" textLength="61" x="252.48" y="804.237">LU:string</text><text fill="#000000" font-family="sans-serif" font-size="14" lengthAdjust="spacing" textLength="77" x="252.48" y="820.5339">MIPS:string</text><text fill="#000000" font-family="sans-serif" font-size="14" lengthAdjust="spacing" textLength="75" x="252.48" y="836.8307">ODP:string</text><text fill="#000000" font-family="sans-serif" font-size="14" lengthAdjust="spacing" textLength="65" x="252.48" y="853.1276">PM:string</text><text fill="#000000" font-family="sans-serif" font-size="14" lengthAdjust="spacing" textLength="83" x="252.48" y="869.4245">POCP:string</text><text fill="#000000" font-family="sans-serif" font-size="14" lengthAdjust="spacing" textLength="77" x="252.48" y="885.7214">ADPf:string</text><text fill="#000000" font-family="sans-serif" font-size="14" lengthAdjust="spacing" textLength="82" x="252.48" y="902.0182">ADPe:string</text><text fill="#000000" font-family="sans-serif" font-size="14" lengthAdjust="spacing" textLength="71" x="252.48" y="918.3151">TPE:string</text><text fill="#000000" font-family="sans-serif" font-size="14" lengthAdjust="spacing" textLength="67" x="252.48" y="934.612">WU:string</text><line style="stroke:#181818;stroke-width:0.5;" x1="247.48" x2="415.48" y1="941.9138" y2="941.9138"/></g><!--class Impact_detail--><g id="elem_Impact_detail"><rect codeLine="15" fill="#F1F1F1" height="113.1875" id="Impact_detail" rx="2.5" ry="2.5" style="stroke:#181818;stroke-width:0.5;" width="186" x="180.48" y="156.45"/><ellipse cx="224.28" cy="172.45" fill="#ADD1B2" rx="11" ry="11" style="stroke:#181818;stroke-width:1.0;"/><path d="M227.2488,178.0906 Q226.6706,178.3875 226.03,178.5281 Q225.3894,178.6844 224.6863,178.6844 Q222.1863,178.6844 220.8581,177.0437 Q219.5456,175.3875 219.5456,172.2625 Q219.5456,169.1375 220.8581,167.4812 Q222.1863,165.825 224.6863,165.825 Q225.3894,165.825 226.03,165.9812 Q226.6863,166.1375 227.2488,166.4344 L227.2488,169.1531 Q226.6238,168.575 226.03,168.3094 Q225.4363,168.0281 224.8113,168.0281 Q223.4675,168.0281 222.78,169.1062 Q222.0925,170.1687 222.0925,172.2625 Q222.0925,174.3562 222.78,175.4344 Q223.4675,176.4969 224.8113,176.4969 Q225.4363,176.4969 226.03,176.2312 Q226.6238,175.95 227.2488,175.3719 L227.2488,178.0906 Z " fill="#000000"/><text fill="#000000" font-family="sans-serif" font-size="14" lengthAdjust="spacing" textLength="90" x="244.68" y="177.2967">Impact_detail</text><line style="stroke:#181818;stroke-width:0.5;" x1="181.48" x2="365.48" y1="188.45" y2="188.45"/><text fill="#000000" font-family="sans-serif" font-size="14" lengthAdjust="spacing" textLength="174" x="186.48" y="205.4451">equipement_name:string</text><text fill="#000000" font-family="sans-serif" font-size="14" lengthAdjust="spacing" textLength="74" x="186.48" y="221.742">tags:string</text><text fill="#000000" font-family="sans-serif" font-size="14" lengthAdjust="spacing" textLength="92" x="186.48" y="238.0389">source:string</text><text fill="#000000" font-family="sans-serif" font-size="14" lengthAdjust="spacing" textLength="100" x="186.48" y="254.3357">provider:string</text><line style="stroke:#181818;stroke-width:0.5;" x1="181.48" x2="365.48" y1="261.6375" y2="261.6375"/></g><!--class Quality--><g id="elem_Quality"><rect codeLine="67" fill="#F1F1F1" height="96.8906" id="Quality" rx="2.5" ry="2.5" style="stroke:#181818;stroke-width:0.5;" width="78" x="548.48" y="426.53"/><ellipse cx="563.48" cy="442.53" fill="#EB937F" rx="11" ry="11" style="stroke:#181818;stroke-width:1.0;"/><path d="M567.5894,448.53 L559.8706,448.53 L559.8706,436.1394 L567.5894,436.1394 L567.5894,438.2956 L562.3238,438.2956 L562.3238,440.9675 L567.0894,440.9675 L567.0894,443.1238 L562.3238,443.1238 L562.3238,446.3738 L567.5894,446.3738 L567.5894,448.53 Z " fill="#000000"/><text fill="#000000" font-family="sans-serif" font-size="14" lengthAdjust="spacing" textLength="46" x="577.48" y="447.3767">Quality</text><line style="stroke:#181818;stroke-width:0.5;" x1="549.48" x2="625.48" y1="458.53" y2="458.53"/><text fill="#000000" font-family="sans-serif" font-size="14" lengthAdjust="spacing" textLength="34" x="554.48" y="475.5251">HIGH</text><text fill="#000000" font-family="sans-serif" font-size="14" lengthAdjust="spacing" textLength="57" x="554.48" y="491.822">MEDIUM</text><text fill="#000000" font-family="sans-serif" font-size="14" lengthAdjust="spacing" textLength="31" x="554.48" y="508.1189">LOW</text><line style="stroke:#181818;stroke-width:0.5;" x1="549.48" x2="625.48" y1="515.4206" y2="515.4206"/></g><!--class Inventory--><g id="elem_Inventory"><rect codeLine="46" fill="#F1F1F1" height="162.0781" id="Inventory" rx="2.5" ry="2.5" style="stroke:#181818;stroke-width:0.5;" width="312" x="401.48" y="132"/><ellipse cx="521.73" cy="148" fill="#ADD1B2" rx="11" ry="11" style="stroke:#181818;stroke-width:1.0;"/><path d="M524.6988,153.6406 Q524.1206,153.9375 523.48,154.0781 Q522.8394,154.2344 522.1363,154.2344 Q519.6363,154.2344 518.3081,152.5938 Q516.9956,150.9375 516.9956,147.8125 Q516.9956,144.6875 518.3081,143.0313 Q519.6363,141.375 522.1363,141.375 Q522.8394,141.375 523.48,141.5313 Q524.1363,141.6875 524.6988,141.9844 L524.6988,144.7031 Q524.0738,144.125 523.48,143.8594 Q522.8863,143.5781 522.2613,143.5781 Q520.9175,143.5781 520.23,144.6563 Q519.5425,145.7188 519.5425,147.8125 Q519.5425,149.9063 520.23,150.9844 Q520.9175,152.0469 522.2613,152.0469 Q522.8863,152.0469 523.48,151.7813 Q524.0738,151.5 524.6988,150.9219 L524.6988,153.6406 Z " fill="#000000"/><text fill="#000000" font-family="sans-serif" font-size="14" lengthAdjust="spacing" textLength="63" x="542.23" y="152.8467">Inventory</text><line style="stroke:#181818;stroke-width:0.5;" x1="402.48" x2="712.48" y1="164" y2="164"/><text fill="#000000" font-family="sans-serif" font-size="14" lengthAdjust="spacing" textLength="174" x="407.48" y="180.9951">equipement_name:string</text><text fill="#000000" font-family="sans-serif" font-size="14" lengthAdjust="spacing" textLength="89" x="407.48" y="197.292">quantity:float</text><text fill="#000000" font-family="sans-serif" font-size="14" lengthAdjust="spacing" textLength="70" x="407.48" y="213.5889">unit:string</text><text fill="#000000" font-family="sans-serif" font-size="14" lengthAdjust="spacing" textLength="83" x="407.48" y="229.8857">lifetime:float</text><text fill="#000000" font-family="sans-serif" font-size="14" lengthAdjust="spacing" textLength="300" x="407.48" y="246.1826">yearly_ielectricity_consupmtion_in_kwh:float</text><text fill="#000000" font-family="sans-serif" font-size="14" lengthAdjust="spacing" textLength="131" x="407.48" y="262.4795">electricityMix:string</text><text fill="#000000" font-family="sans-serif" font-size="14" lengthAdjust="spacing" textLength="66" x="407.48" y="278.7764">tag:string</text><line style="stroke:#181818;stroke-width:0.5;" x1="402.48" x2="712.48" y1="286.0781" y2="286.0781"/></g><!--class Metadata--><g id="elem_Metadata"><rect codeLine="59" fill="#F1F1F1" height="129.4844" id="Metadata" rx="2.5" ry="2.5" style="stroke:#181818;stroke-width:0.5;" width="141" x="747.98" y="148.3"/><ellipse cx="783.23" cy="164.3" fill="#ADD1B2" rx="11" ry="11" style="stroke:#181818;stroke-width:1.0;"/><path d="M786.1988,169.9406 Q785.6206,170.2375 784.98,170.3781 Q784.3394,170.5344 783.6363,170.5344 Q781.1363,170.5344 779.8081,168.8937 Q778.4956,167.2375 778.4956,164.1125 Q778.4956,160.9875 779.8081,159.3312 Q781.1363,157.675 783.6363,157.675 Q784.3394,157.675 784.98,157.8312 Q785.6363,157.9875 786.1988,158.2844 L786.1988,161.0031 Q785.5738,160.425 784.98,160.1594 Q784.3863,159.8781 783.7613,159.8781 Q782.4175,159.8781 781.73,160.9562 Q781.0425,162.0187 781.0425,164.1125 Q781.0425,166.2062 781.73,167.2844 Q782.4175,168.3469 783.7613,168.3469 Q784.3863,168.3469 784.98,168.0812 Q785.5738,167.8 786.1988,167.2219 L786.1988,169.9406 Z " fill="#000000"/><text fill="#000000" font-family="sans-serif" font-size="14" lengthAdjust="spacing" textLength="64" x="801.73" y="169.1467">Metadata</text><line style="stroke:#181818;stroke-width:0.5;" x1="748.98" x2="887.98" y1="180.3" y2="180.3"/><text fill="#000000" font-family="sans-serif" font-size="14" lengthAdjust="spacing" textLength="129" x="753.98" y="197.2951">organization:string</text><text fill="#000000" font-family="sans-serif" font-size="14" lengthAdjust="spacing" textLength="96" x="753.98" y="213.592">dataset:string</text><text fill="#000000" font-family="sans-serif" font-size="14" lengthAdjust="spacing" textLength="117" x="753.98" y="229.8889">timestamp:string</text><text fill="#000000" font-family="sans-serif" font-size="14" lengthAdjust="spacing" textLength="100" x="753.98" y="246.1857">provider:string</text><text fill="#000000" font-family="sans-serif" font-size="14" lengthAdjust="spacing" textLength="94" x="753.98" y="262.4826">version:string</text><line style="stroke:#181818;stroke-width:0.5;" x1="748.98" x2="887.98" y1="269.7844" y2="269.7844"/></g><!--class Source--><g id="elem_Source"><rect codeLine="87" fill="#F1F1F1" height="96.8906" id="Source" rx="2.5" ry="2.5" style="stroke:#181818;stroke-width:0.5;" width="106" x="765.48" y="426.53"/><ellipse cx="791.73" cy="442.53" fill="#ADD1B2" rx="11" ry="11" style="stroke:#181818;stroke-width:1.0;"/><path d="M794.6988,448.1706 Q794.1206,448.4675 793.48,448.6081 Q792.8394,448.7644 792.1363,448.7644 Q789.6363,448.7644 788.3081,447.1238 Q786.9956,445.4675 786.9956,442.3425 Q786.9956,439.2175 788.3081,437.5613 Q789.6363,435.905 792.1363,435.905 Q792.8394,435.905 793.48,436.0613 Q794.1363,436.2175 794.6988,436.5144 L794.6988,439.2331 Q794.0738,438.655 793.48,438.3894 Q792.8863,438.1081 792.2613,438.1081 Q790.9175,438.1081 790.23,439.1863 Q789.5425,440.2488 789.5425,442.3425 Q789.5425,444.4363 790.23,445.5144 Q790.9175,446.5769 792.2613,446.5769 Q792.8863,446.5769 793.48,446.3113 Q794.0738,446.03 794.6988,445.4519 L794.6988,448.1706 Z " fill="#000000"/><text fill="#000000" font-family="sans-serif" font-size="14" lengthAdjust="spacing" textLength="49" x="808.23" y="447.3767">Source</text><line style="stroke:#181818;stroke-width:0.5;" x1="766.48" x2="870.48" y1="458.53" y2="458.53"/><text fill="#000000" font-family="sans-serif" font-size="14" lengthAdjust="spacing" textLength="83" x="771.48" y="475.5251">name:string</text><text fill="#000000" font-family="sans-serif" font-size="14" lengthAdjust="spacing" textLength="94" x="771.48" y="491.822">version:string</text><text fill="#000000" font-family="sans-serif" font-size="14" lengthAdjust="spacing" textLength="71" x="771.48" y="508.1189">href:string</text><line style="stroke:#181818;stroke-width:0.5;" x1="766.48" x2="870.48" y1="515.4206" y2="515.4206"/></g><!--class Report--><g id="elem_Report"><rect codeLine="73" fill="#F1F1F1" height="48" id="Report" rx="2.5" ry="2.5" style="stroke:#181818;stroke-width:0.5;" width="79" x="680.98" y="7"/><ellipse cx="695.98" cy="23" fill="#ADD1B2" rx="11" ry="11" style="stroke:#181818;stroke-width:1.0;"/><path d="M698.9488,28.6406 Q698.3706,28.9375 697.73,29.0781 Q697.0894,29.2344 696.3863,29.2344 Q693.8863,29.2344 692.5581,27.5938 Q691.2456,25.9375 691.2456,22.8125 Q691.2456,19.6875 692.5581,18.0313 Q693.8863,16.375 696.3863,16.375 Q697.0894,16.375 697.73,16.5313 Q698.3863,16.6875 698.9488,16.9844 L698.9488,19.7031 Q698.3238,19.125 697.73,18.8594 Q697.1363,18.5781 696.5113,18.5781 Q695.1675,18.5781 694.48,19.6563 Q693.7925,20.7188 693.7925,22.8125 Q693.7925,24.9063 694.48,25.9844 Q695.1675,27.0469 696.5113,27.0469 Q697.1363,27.0469 697.73,26.7813 Q698.3238,26.5 698.9488,25.9219 L698.9488,28.6406 Z " fill="#000000"/><text fill="#000000" font-family="sans-serif" font-size="14" lengthAdjust="spacing" textLength="47" x="709.98" y="27.8467">Report</text><line style="stroke:#181818;stroke-width:0.5;" x1="681.98" x2="758.98" y1="39" y2="39"/><line style="stroke:#181818;stroke-width:0.5;" x1="681.98" x2="758.98" y1="47" y2="47"/></g><!--class Tag--><g id="elem_Tag"><rect codeLine="93" fill="#F1F1F1" height="64.2969" id="Tag" rx="2.5" ry="2.5" style="stroke:#181818;stroke-width:0.5;" width="95" x="893.98" y="324.08"/><ellipse cx="925.63" cy="340.08" fill="#ADD1B2" rx="11" ry="11" style="stroke:#181818;stroke-width:1.0;"/><path d="M928.5988,345.7206 Q928.0206,346.0175 927.38,346.1581 Q926.7394,346.3144 926.0363,346.3144 Q923.5363,346.3144 922.2081,344.6737 Q920.8956,343.0175 920.8956,339.8925 Q920.8956,336.7675 922.2081,335.1112 Q923.5363,333.455 926.0363,333.455 Q926.7394,333.455 927.38,333.6112 Q928.0363,333.7675 928.5988,334.0644 L928.5988,336.7831 Q927.9738,336.205 927.38,335.9394 Q926.7863,335.6581 926.1613,335.6581 Q924.8175,335.6581 924.13,336.7362 Q923.4425,337.7987 923.4425,339.8925 Q923.4425,341.9862 924.13,343.0644 Q924.8175,344.1269 926.1613,344.1269 Q926.7863,344.1269 927.38,343.8612 Q927.9738,343.58 928.5988,343.0019 L928.5988,345.7206 Z " fill="#000000"/><text fill="#000000" font-family="sans-serif" font-size="14" lengthAdjust="spacing" textLength="26" x="943.33" y="344.9267">Tag</text><line style="stroke:#181818;stroke-width:0.5;" x1="894.98" x2="987.98" y1="356.08" y2="356.08"/><text fill="#000000" font-family="sans-serif" font-size="14" lengthAdjust="spacing" textLength="83" x="899.98" y="373.0751">name:string</text><line style="stroke:#181818;stroke-width:0.5;" x1="894.98" x2="987.98" y1="380.3769" y2="380.3769"/></g><!--class ReportQuality--><g id="elem_ReportQuality"><rect codeLine="81" fill="#F1F1F1" height="96.8906" id="ReportQuality" rx="2.5" ry="2.5" style="stroke:#181818;stroke-width:0.5;" width="125" x="993.98" y="164.6"/><ellipse cx="1008.98" cy="180.6" fill="#ADD1B2" rx="11" ry="11" style="stroke:#181818;stroke-width:1.0;"/><path d="M1011.9488,186.2406 Q1011.3706,186.5375 1010.73,186.6781 Q1010.0894,186.8344 1009.3863,186.8344 Q1006.8863,186.8344 1005.5581,185.1938 Q1004.2456,183.5375 1004.2456,180.4125 Q1004.2456,177.2875 1005.5581,175.6313 Q1006.8863,173.975 1009.3863,173.975 Q1010.0894,173.975 1010.73,174.1313 Q1011.3863,174.2875 1011.9488,174.5844 L1011.9488,177.3031 Q1011.3238,176.725 1010.73,176.4594 Q1010.1363,176.1781 1009.5113,176.1781 Q1008.1675,176.1781 1007.48,177.2563 Q1006.7925,178.3188 1006.7925,180.4125 Q1006.7925,182.5063 1007.48,183.5844 Q1008.1675,184.6469 1009.5113,184.6469 Q1010.1363,184.6469 1010.73,184.3813 Q1011.3238,184.1 1011.9488,183.5219 L1011.9488,186.2406 Z " fill="#000000"/><text fill="#000000" font-family="sans-serif" font-size="14" lengthAdjust="spacing" textLength="93" x="1022.98" y="185.4467">ReportQuality</text><line style="stroke:#181818;stroke-width:0.5;" x1="994.98" x2="1117.98" y1="196.6" y2="196.6"/><text fill="#000000" font-family="sans-serif" font-size="14" lengthAdjust="spacing" textLength="64" x="999.98" y="213.5951">high:float</text><text fill="#000000" font-family="sans-serif" font-size="14" lengthAdjust="spacing" textLength="90" x="999.98" y="229.892">medium:float</text><text fill="#000000" font-family="sans-serif" font-size="14" lengthAdjust="spacing" textLength="57" x="999.98" y="246.1889">low:float</text><line style="stroke:#181818;stroke-width:0.5;" x1="994.98" x2="1117.98" y1="253.4906" y2="253.4906"/></g><!--link Impact to ImpactsByIndicators--><g id="link_Impact_ImpactsByIndicators"><path codeLine="10" d="M258.44,499.22 C257.73,516.43 256.85,540.46 256.48,561.57 C256.35,569.12 255.13,571.13 256.48,578.57 C258.25,588.31 258.9734,592.3896 261.5234,602.2896 " fill="none" id="Impact-to-ImpactsByIndicators" style="stroke:#181818;stroke-width:1.0;"/><polygon fill="#181818" points="263.02,608.1,264.6487,598.3867,261.7728,603.258,256.9015,600.3822,263.02,608.1" style="stroke:#181818;stroke-width:1.0;"/><text fill="#000000" font-family="sans-serif" font-size="13" lengthAdjust="spacing" textLength="30" x="257.48" y="574.6369">build</text><text fill="#000000" font-family="sans-serif" font-size="13" lengthAdjust="spacing" textLength="21" x="238.6889" y="597.6332">1-1</text></g><!--link Impact to ImpactsByIndicators--><g id="link_Impact_ImpactsByIndicators"><path codeLine="11" d="M269.81,499.18 C277.03,516.17 286.42,539.94 292.48,561.57 C296.68,576.56 299.2304,586.4224 302.7404,602.2424 " fill="none" id="Impact-to-ImpactsByIndicators-1" style="stroke:#181818;stroke-width:1.0;"/><polygon fill="#181818" points="304.04,608.1,305.9956,598.4472,302.957,603.2187,298.1855,600.1801,304.04,608.1" style="stroke:#181818;stroke-width:1.0;"/><text fill="#000000" font-family="sans-serif" font-size="13" lengthAdjust="spacing" textLength="71" x="297.48" y="574.6369">distribution</text><text fill="#000000" font-family="sans-serif" font-size="13" lengthAdjust="spacing" textLength="21" x="281.4394" y="597.6332">1-1</text></g><!--link Impact to ImpactsByIndicators--><g id="link_Impact_ImpactsByIndicators"><path codeLine="12" d="M284.49,499.34 C296.21,509.76 310.62,521.85 324.48,531.57 C346.64,547.1 363.84,538.18 377.48,561.57 C385.9,576.02 389.6914,585.8268 390.9114,602.0968 " fill="none" id="Impact-to-ImpactsByIndicators-2" style="stroke:#181818;stroke-width:1.0;"/><polygon fill="#181818" points="391.36,608.08,394.6758,598.8061,390.9861,603.094,386.6982,599.4043,391.36,608.08" style="stroke:#181818;stroke-width:1.0;"/><text fill="#000000" font-family="sans-serif" font-size="13" lengthAdjust="spacing" textLength="23" x="386.48" y="574.6369">use</text><text fill="#000000" font-family="sans-serif" font-size="13" lengthAdjust="spacing" textLength="21" x="372.4432" y="597.6124">1-1</text></g><!--link Impact to ImpactsByIndicators--><g id="link_Impact_ImpactsByIndicators"><path codeLine="13" d="M225.65,499.31 C202.1,518.71 176.55,548 186.48,578.57 C198.98,617.07 218.3921,649.5811 242.4721,681.3011 " fill="none" id="Impact-to-ImpactsByIndicators-3" style="stroke:#181818;stroke-width:1.0;"/><polygon fill="#181818" points="246.1,686.08,243.8441,676.493,243.0767,682.0975,237.4722,681.3302,246.1,686.08" style="stroke:#181818;stroke-width:1.0;"/><text fill="#000000" font-family="sans-serif" font-size="13" lengthAdjust="spacing" textLength="60" x="187.48" y="574.6369">endOfLife</text><text fill="#000000" font-family="sans-serif" font-size="13" lengthAdjust="spacing" textLength="21" x="217.4596" y="675.1307">1-1</text></g><!--link Impact_detail to EQUIPEMENT_TYPE--><g id="link_Impact_detail_EQUIPEMENT_TYPE"><path codeLine="21" d="M240.11,269.83 C222.99,306.37 210.29,353.63 234.48,388.38 C256.41,419.89 280.29,403.03 315.48,418.38 C324.21,422.19 327.8071,423.7615 336.7571,428.0415 " fill="none" id="Impact_detail-to-EQUIPEMENT_TYPE" style="stroke:#181818;stroke-width:1.0;"/><polygon fill="#181818" points="342.17,430.63,335.7763,423.1386,337.6592,428.4729,332.325,430.3558,342.17,430.63" style="stroke:#181818;stroke-width:1.0;"/><text fill="#000000" font-family="sans-serif" font-size="13" lengthAdjust="spacing" textLength="112" x="235.48" y="360.7969">equipement_type</text><text fill="#000000" font-family="sans-serif" font-size="13" lengthAdjust="spacing" textLength="21" x="313.4014" y="423.4091">1-1</text></g><!--link Impact_detail to Quality--><g id="link_Impact_detail_Quality"><path codeLine="22" d="M347.55,270.05 C359.67,278.45 372.26,286.74 384.48,294.08 C410.38,309.64 424.06,302.77 445.48,324.08 C468.1,346.6 455.92,364.84 477.48,388.38 C494.73,407.21 506.06,403.04 526.48,418.38 C533.7,423.8 536.5553,425.9567 543.5453,432.1067 " fill="none" id="Impact_detail-to-Quality" style="stroke:#181818;stroke-width:1.0;"/><polygon fill="#181818" points="548.05,436.07,543.9352,427.1219,544.2961,432.7672,538.6508,433.1281,548.05,436.07" style="stroke:#181818;stroke-width:1.0;"/><text fill="#000000" font-family="sans-serif" font-size="13" lengthAdjust="spacing" textLength="42" x="478.48" y="360.7969">quality</text><text fill="#000000" font-family="sans-serif" font-size="13" lengthAdjust="spacing" textLength="21" x="519.4045" y="426.0412">1-1</text></g><!--link Impact_detail to Impact--><g id="link_Impact_detail_Impact"><path codeLine="23" d="M189.69,269.86 C173,285.29 157.77,303.53 148.48,324.08 C136.71,350.12 135.87,362.73 148.48,388.38 C163.35,418.62 189.3877,438.2636 214.9577,452.6136 " fill="none" id="Impact_detail-to-Impact" style="stroke:#181818;stroke-width:1.0;"/><polygon fill="#181818" points="220.19,455.55,214.2991,447.6571,215.8297,453.103,210.3839,454.6336,220.19,455.55" style="stroke:#181818;stroke-width:1.0;"/><text fill="#000000" font-family="sans-serif" font-size="13" lengthAdjust="spacing" textLength="44" x="149.48" y="360.7969">impact</text><text fill="#000000" font-family="sans-serif" font-size="13" lengthAdjust="spacing" textLength="21" x="191.5659" y="448.5049">1-1</text></g><!--link Inventory to EQUIPEMENT_TYPE--><g id="link_Inventory_EQUIPEMENT_TYPE"><path codeLine="55" d="M556.55,294.43 C553.22,325.46 545.64,360.19 529.48,388.38 C523.37,399.03 519.5943,404.6294 510.7743,413.6094 " fill="none" id="Inventory-to-EQUIPEMENT_TYPE" style="stroke:#181818;stroke-width:1.0;"/><polygon fill="#181818" points="506.57,417.89,515.7302,414.272,510.0736,414.3228,510.0228,408.6662,506.57,417.89" style="stroke:#181818;stroke-width:1.0;"/><text fill="#000000" font-family="sans-serif" font-size="13" lengthAdjust="spacing" textLength="112" x="553.48" y="360.7969">equipement_type</text><text fill="#000000" font-family="sans-serif" font-size="13" lengthAdjust="spacing" textLength="21" x="493.732" y="407.4971">1-1</text></g><!--link Inventory to Quality--><g id="link_Inventory_Quality"><path codeLine="56" d="M664.95,294.27 C672.29,303.55 678.67,313.51 683.48,324.08 C695.3,350.1 695.17,362.3 683.48,388.38 C671.79,414.46 652.6918,432.3999 631.6118,447.2799 " fill="none" id="Inventory-to-Quality" style="stroke:#181818;stroke-width:1.0;"/><polygon fill="#181818" points="626.71,450.74,636.3694,448.8177,630.7948,447.8566,631.756,442.282,626.71,450.74" style="stroke:#181818;stroke-width:1.0;"/><text fill="#000000" font-family="sans-serif" font-size="13" lengthAdjust="spacing" textLength="42" x="693.48" y="360.7969">quality</text><text fill="#000000" font-family="sans-serif" font-size="13" lengthAdjust="spacing" textLength="21" x="634.3249" y="442.9576">1-1</text></g><!--link Inventory to Impact--><g id="link_Inventory_Impact"><path codeLine="57" d="M420.84,294.34 C409.28,303.65 398.28,313.6 388.48,324.08 C366.11,348 372.78,362.68 352.48,388.38 C341.94,401.72 314.5961,426.3511 291.0861,446.8111 " fill="none" id="Inventory-to-Impact" style="stroke:#181818;stroke-width:1.0;"/><polygon fill="#181818" points="286.56,450.75,295.975,447.859,290.3317,447.4676,290.7232,441.8243,286.56,450.75" style="stroke:#181818;stroke-width:1.0;"/><text fill="#000000" font-family="sans-serif" font-size="13" lengthAdjust="spacing" textLength="51" x="389.48" y="360.7969">impacts</text><text fill="#000000" font-family="sans-serif" font-size="13" lengthAdjust="spacing" textLength="21" x="269.6014" y="440.1013">1-1</text></g><!--link Metadata to Source--><g id="link_Metadata_Source"><path codeLine="66" d="M818.48,277.96 C818.48,323.81 818.48,378.59 818.48,420.24 " fill="none" id="Metadata-to-Source" style="stroke:#181818;stroke-width:1.0;"/><polygon fill="#181818" points="818.48,426.24,822.48,417.24,818.48,421.24,814.48,417.24,818.48,426.24" style="stroke:#181818;stroke-width:1.0;"/><text fill="#000000" font-family="sans-serif" font-size="13" lengthAdjust="spacing" textLength="50" x="819.48" y="360.7969">sources</text><text fill="#000000" font-family="sans-serif" font-size="13" lengthAdjust="spacing" textLength="20" x="797.0738" y="415.4081">0-*</text></g><!--link Report to Metadata--><g id="link_Report_Metadata"><path codeLine="74" d="M733.09,55.17 C745.81,78.54 763.1522,110.3898 780.7122,142.6598 " fill="none" id="Report-to-Metadata" style="stroke:#181818;stroke-width:1.0;"/><polygon fill="#181818" points="783.58,147.93,782.7917,138.1127,781.1901,143.5381,775.7647,141.9365,783.58,147.93" style="stroke:#181818;stroke-width:1.0;"/><text fill="#000000" font-family="sans-serif" font-size="13" lengthAdjust="spacing" textLength="63" x="759.48" y="98.0669">metadata</text><text fill="#000000" font-family="sans-serif" font-size="13" lengthAdjust="spacing" textLength="21" x="757.6144" y="137.0622">0-1</text></g><!--link Report to Impact--><g id="link_Report_Impact"><path codeLine="75" d="M680.83,31.82 C553.64,32.17 159.59,40.71 81.48,132 C6,220.21 53.67,302.22 131.48,388.38 C156.65,416.26 187.4961,436.4122 214.9461,451.5522 " fill="none" id="Report-to-Impact" style="stroke:#181818;stroke-width:1.0;"/><polygon fill="#181818" points="220.2,454.45,214.2511,446.6008,215.8218,452.0352,210.3874,453.6059,220.2,454.45" style="stroke:#181818;stroke-width:1.0;"/><text fill="#000000" font-family="sans-serif" font-size="13" lengthAdjust="spacing" textLength="80" x="82.48" y="217.6069">total_impact</text><text fill="#000000" font-family="sans-serif" font-size="13" lengthAdjust="spacing" textLength="21" x="191.5774" y="464.5334">0-1</text></g><!--link Report to Tag--><g id="link_Report_Tag"><path codeLine="76" d="M760.46,41.44 C804.29,54.08 872.86,81.05 906.48,132 C945.48,191.1 947.2133,271.8493 944.6533,317.8693 " fill="none" id="Report-to-Tag" style="stroke:#181818;stroke-width:1.0;"/><polygon fill="#181818" points="944.32,323.86,948.8137,315.0961,944.5977,318.8677,940.8261,314.6517,944.32,323.86" style="stroke:#181818;stroke-width:1.0;"/><text fill="#000000" font-family="sans-serif" font-size="13" lengthAdjust="spacing" textLength="28" x="881.48" y="98.0669">tags</text><text fill="#000000" font-family="sans-serif" font-size="13" lengthAdjust="spacing" textLength="20" x="922.9104" y="313.0909">0-*</text></g><!--link Report to Inventory--><g id="link_Report_Inventory"><path codeLine="77" d="M699.5,55.17 C681.79,74.74 659.3664,99.5017 634.0764,127.4417 " fill="none" id="Report-to-Inventory" style="stroke:#181818;stroke-width:1.0;"/><polygon fill="#181818" points="630.05,131.89,639.0552,127.9018,633.4054,128.183,633.1241,122.5332,630.05,131.89" style="stroke:#181818;stroke-width:1.0;"/><text fill="#000000" font-family="sans-serif" font-size="13" lengthAdjust="spacing" textLength="59" x="673.48" y="98.0669">inventory</text><text fill="#000000" font-family="sans-serif" font-size="13" lengthAdjust="spacing" textLength="20" x="615.6226" y="121.0675">0-*</text></g><!--link Report to ReportQuality--><g id="link_Report_ReportQuality"><path codeLine="78" d="M760.41,36.24 C824,43.62 944.63,60.45 979.48,85 C1006.99,104.39 1023.9685,131.5618 1036.4485,158.9018 " fill="none" id="Report-to-ReportQuality" style="stroke:#181818;stroke-width:1.0;"/><polygon fill="#181818" points="1038.94,164.36,1038.8415,154.5116,1036.8637,159.8115,1031.5639,157.8337,1038.94,164.36" style="stroke:#181818;stroke-width:1.0;"/><text fill="#000000" font-family="sans-serif" font-size="13" lengthAdjust="spacing" textLength="42" x="999.48" y="98.0669">quality</text><text fill="#000000" font-family="sans-serif" font-size="13" lengthAdjust="spacing" textLength="21" x="1013.9969" y="153.5352">0-1</text></g><!--link Report to Impact_detail--><g id="link_Report_Impact_detail"><path codeLine="79" d="M680.6,39.35 C615.99,52.22 485.52,82.32 384.48,132 C370.73,138.77 361.8288,143.8368 348.7688,152.6768 " fill="none" id="Report-to-Impact_detail" style="stroke:#181818;stroke-width:1.0;"/><polygon fill="#181818" points="343.8,156.04,353.4953,154.3077,347.9406,153.2373,349.011,147.6826,343.8,156.04" style="stroke:#181818;stroke-width:1.0;"/><text fill="#000000" font-family="sans-serif" font-size="13" lengthAdjust="spacing" textLength="102" x="502.48" y="98.0669">detailed_impact</text><text fill="#000000" font-family="sans-serif" font-size="13" lengthAdjust="spacing" textLength="20" x="331.1515" y="145.2536">0-*</text></g><!--link Tag to ImpactsByIndicators--><g id="link_Tag_ImpactsByIndicators"><path codeLine="96" d="M939.69,388.73 C935.93,426.88 924.33,491.06 888.48,531.57 C762.48,673.92 544.6829,736.7516 422.6229,762.2816 " fill="none" id="Tag-to-ImpactsByIndicators" style="stroke:#181818;stroke-width:1.0;"/><polygon fill="#181818" points="416.75,763.51,426.3783,765.5827,421.6441,762.4864,424.7405,757.7522,416.75,763.51" style="stroke:#181818;stroke-width:1.0;"/><text fill="#000000" font-family="sans-serif" font-size="13" lengthAdjust="spacing" textLength="51" x="937.48" y="479.5369">impacts</text><text fill="#000000" font-family="sans-serif" font-size="13" lengthAdjust="spacing" textLength="21" x="424.3817" y="758.7309">1-1</text></g><!--SRC=[bLLBZzem4BxpAooEbP2wrnmgKOYMI8Ha8LdKK-HD7B2Qs5dROPjM-zzhEoyR8bRSvfk7FVFDZ8r8NGBt9VP2rtTtKHBz2btmRmO0EBZxLtUlf5Tl7yNBBV2NgustSvLg5qJ0YvIqNOPH4Cu-PxEqW9m3hwnWAfIbbS1YyGFCdnPFyqx1VpOUoN0A1MKSEE2jnaNsW7-6kM3uhHQOaWV2QeuUy4Oa2_8jpf5TLf8X0N7H4eJUQroX4X6H45WYHwL5JieYu8aRaDEQfQQzOlI2CyHwrUUOMN_3cE1rSnppOj5Kw5xmImqBB1ePzDvAzvmxRXo0snvQfTiCQGAMeL7Jyz54goWs2tQht4AbXOGTU5warmfYQhoz0RQn0NmlF1WmM9ifXRu9WfLfMwx3t8Pczb7e6kWOZsth6I8NsGpAcgy6GpQ12Da59oyer4jI4soMNyYH4rZ630uDWgne4emAb4gtL4OdAIMyhagr0GacoU-Fy-Xl-FduZpsKzhmDIJywQnE1qtCsuNWrOxodq9V3c441MmOfEq62_q9LeL62Sk38v4jnnGKigplR9LKNnBXnbAv_k54dzttnRGuEUb5bSkt6yXbIhsDVcyviuprlTBIxzc9VJs1m72TXZohAT1zQgJzSLZxSvu2o4oVz1eO45R18yF2UsfuotGYUb9jyR2RD8_sIxLwUlB9LJFRmzbJhyP3FiHPGbjYFXdsafkwCJyQSbYZ3TJdYWdvqO22pQuSElbgaguQgqndARnPJCNGJhhklB5zz0ls8_WS0]--></g></svg>